<svg xmlns="http://www.w3.org/2000/svg" viewBox="0 0 183.65 94.25"><path d="M91.09,56.6A85.11,85.11,0,0,1,79.63,75.54C74.9,81.22,69,86.33,61.79,89l-.35.12-.36-.1a94.32,94.32,0,0,1-19.57-8.41,103.85,103.85,0,0,1-17.4-12.2A79.92,79.92,0,0,1,9.94,52.54a75,75,0,0,1-9.32-19L0,31.65l1.52,1.26A77.47,77.47,0,0,1,13.08,45.09,88.38,88.38,0,0,1,22,59.33a119.53,119.53,0,0,1,6.52,15.48A153.64,153.64,0,0,1,33,91l-2.12-.46a68.21,68.21,0,0,0,7.2-16,89.35,89.35,0,0,0,3.69-17.26,97.16,97.16,0,0,0,.28-17.64c-.06-3-.61-5.86-.93-8.79s-1.11-5.8-1.65-8.7l3.07-.79A124.3,124.3,0,0,0,50,41.22,108,108,0,0,0,60.85,59.45,119.15,119.15,0,0,0,74.71,75.63,108.76,108.76,0,0,0,91.2,89.24l-.15.26a102.79,102.79,0,0,1-17.4-12.74A115.94,115.94,0,0,1,58.93,60.88,111.78,111.78,0,0,1,47.36,42.51c-3.45-6.41-5.75-13.34-7.88-20.28l3.07-.79c.58,3,1.3,5.94,1.76,8.94s.92,6,1,9.07a95.66,95.66,0,0,1-.52,18.22,91.55,91.55,0,0,1-4.06,17.77A69.39,69.39,0,0,1,32.8,91.93l-1.56,2.32-.56-2.77a159,159,0,0,0-3.87-16.13,116,116,0,0,0-5.92-15.49A83.55,83.55,0,0,0,12.3,45.68,67.09,67.09,0,0,0,.8,33.79l.9-.61a66.49,66.49,0,0,0,9.74,18.29A84.58,84.58,0,0,0,25.79,66.41,119.87,119.87,0,0,0,42.84,78.22,91.91,91.91,0,0,0,61.71,86.7l-.71,0c6.71-2.33,12.6-6.83,17.41-12.24a97.84,97.84,0,0,0,12.4-18Z"></path><path d="M150.25,91.21a125,125,0,0,1,3.55-16.39,104.37,104.37,0,0,1,5.93-15.76,87.65,87.65,0,0,1,8.72-14.51,68.79,68.79,0,0,1,11.86-12.13l3.34-2.63-1.42,3.93a71.07,71.07,0,0,1-10.17,18.65,92.49,92.49,0,0,1-14.43,15.42A125.28,125.28,0,0,1,140.51,80.2a88.54,88.54,0,0,1-19.3,9l-.39.12-.43-.14c-8.57-2.94-15.45-9.18-20.84-16.06A96.79,96.79,0,0,1,86.82,50.19a64.69,64.69,0,0,1-4.29-25.81,49.48,49.48,0,0,1,2.39-12.89A41.64,41.64,0,0,1,91,0l.25.18a45.55,45.55,0,0,0-6.59,24.26,64.76,64.76,0,0,0,5,24.63,95.5,95.5,0,0,0,12.43,22c5,6.7,11.39,12.6,19.15,15.47l-.81,0a97.66,97.66,0,0,0,19.13-7.92A100.15,100.15,0,0,0,157,67a73.89,73.89,0,0,0,14.1-15.34A70.48,70.48,0,0,0,179.93,33l1.92,1.3a75.91,75.91,0,0,0-11.2,11.95,84.07,84.07,0,0,0-8.76,13.9,133.76,133.76,0,0,0-6.51,15.21c-1.87,5.21-3.37,10.55-4.83,15.93Z"></path><path d="M91.12.09a35.12,35.12,0,0,1,7.19,13.13,45.65,45.65,0,0,1,1.86,15A56.36,56.36,0,0,1,91,56.53c3.24-9.38,5.79-18.79,6.14-28.41A55.36,55.36,0,0,0,91.12.09Z"></path><path d="M91.12,89.37a114.41,114.41,0,0,0,16.4-13.76,116.46,116.46,0,0,0,13.82-16.2,112.24,112.24,0,0,0,10.93-18.18c3.23-6.32,5.37-13.08,7.52-19.81l2.9.74c-.58,2.9-1.29,5.77-1.75,8.69s-.93,5.84-1,8.8l-.28,4.42V48.5c-.08,3,.21,5.91.41,8.86a92.84,92.84,0,0,0,3.43,17.43,72.36,72.36,0,0,0,6.91,16.45,65.45,65.45,0,0,1-8.23-16,87.55,87.55,0,0,1-4.32-17.6,86.08,86.08,0,0,1-.66-18.15c.05-3,.6-6,.92-9.06s1.12-6,1.66-8.95l2.9.74a108,108,0,0,1-7.81,20.3,107.81,107.81,0,0,1-11.5,18.42,119.12,119.12,0,0,1-14.75,15.86A97.72,97.72,0,0,1,91.12,89.37Z"></path></svg>
