<svg xmlns="http://www.w3.org/2000/svg" viewBox="0 0 848.6 372.57">
    <path class="a" d="M29.79,173.08H0v83.34H13.37v-39.7H29.79c19.15,0,30.58-8.07,30.58-21.59S48.65,173.08,29.79,173.08Zm-16.42,2.54H27.78c12.84,0,18.69,10.12,18.69,19.51,0,13.15-9.45,19-18.82,19H13.37Z"></path>
    <path class="a" d="M140.62,222.45l6.81,34H161.1L155.3,228c-1.36-7.29-6.76-12.54-14.53-14.44,11.86-2.77,18.55-9.81,18.55-19.77,0-12.36-13-20.66-32.46-20.66h-28v83.34h13.37V214.86H129.8C135.1,214.86,139.85,218.19,140.62,222.45Zm-28.44-46.83h14.28c13,0,19,9.39,19,18.12,0,7.46-5.09,18.58-19.09,18.58H112.18Z"></path>
    <polygon class="a" points="261.87 253.87 215.4 253.87 215.4 215.44 242.78 215.44 242.78 212.9 215.4 212.9 215.4 175.63 261.87 175.63 261.87 173.08 202.03 173.08 202.03 256.42 261.87 256.42 261.87 253.87"></polygon>
    <path class="a" d="M356.41,232.39c0-18.82-15.37-22.14-30.23-25.36l-1.25-.27c-14.47-3.18-25.54-6.42-25.54-16.62,0-9.18,10.67-16.38,24.3-16.38,9,0,17.74,3.59,22.75,9.36l.53.61,2-1.76-.55-.62c-5.73-6.34-15-10.13-24.91-10.13-16.87,0-30.59,10.78-30.59,24,0,17.63,14.51,20.88,28.62,24s27.2,5.91,27.2,18.58c0,10-11.2,17.88-25.5,17.88-9.86,0-19.67-4.12-25-10.5l-.52-.64-2,1.77.53.61c6.15,7.08,16.36,11.31,27.32,11.31C341.67,258.28,356.41,246.67,356.41,232.39Z"></path>
    <rect class="a" x="397.52" y="173.08" width="13.37" height="83.35"></rect>
    <path class="a" d="M483.12,173.08H456.67v83.34h26.45c27.21,0,46.21-17.13,46.21-41.67S510.33,173.08,483.12,173.08ZM470,175.62h12.28c19.48,0,32.57,15.73,32.57,39.13s-13.09,39.12-32.57,39.12H470Z"></path>
    <polygon class="a" points="568.43 256.42 628.27 256.42 628.27 253.87 581.8 253.87 581.8 215.44 609.18 215.44 609.18 212.9 581.8 212.9 581.8 175.63 628.27 175.63 628.27 173.08 568.43 173.08 568.43 256.42"></polygon>
    <polygon class="a" points="734.01 237.48 680.42 173.37 680.18 173.08 666.71 173.08 666.71 256.42 669.66 256.42 669.66 180.51 734.07 256.83 734.31 257.12 736.97 257.12 736.97 173.08 734.01 173.08 734.01 237.48"></polygon>
    <polygon class="a" points="773 173.08 773 175.63 804.11 175.63 804.11 256.42 817.48 256.42 817.48 175.63 848.6 175.63 848.6 173.08 773 173.08"></polygon>
    <polygon class="a" points="137.53 288.99 168.65 288.99 168.65 369.79 182.02 369.79 182.02 288.99 213.13 288.99 213.13 286.44 137.53 286.44 137.53 288.99"></polygon>
    <path class="a" d="M291.12,326.87c11.86-2.77,18.55-9.81,18.55-19.77,0-12.36-13-20.66-32.46-20.66h-28v83.35h13.38V328.22h17.61c5.3,0,10.05,3.33,10.83,7.6l6.8,34h13.67l-5.79-28.48C304.3,334,298.89,328.78,291.12,326.87ZM262.54,289h14.28c13,0,18.95,9.38,18.95,18.11,0,7.47-5.08,18.58-19.09,18.58H262.54Z"></path>
    <path class="a" d="M382.43,284.58h-2.26L342.6,369.79h3.11l11.88-26.94h36.33l11.76,26.94H420l-37.36-84.73ZM358.71,340.3l16.66-37.73,17.29,37.73Z"></path>
    <polygon class="a" points="479.65 354.46 451.41 286.93 451.2 286.44 437.03 286.44 472.89 372.08 473.1 372.57 475.24 372.57 511.31 286.44 508.22 286.44 479.65 354.46"></polygon>
    <polygon class="a" points="546.4 369.79 606.24 369.79 606.24 367.24 559.77 367.24 559.77 328.81 587.14 328.81 587.14 326.26 559.77 326.26 559.77 288.99 606.24 288.99 606.24 286.44 546.4 286.44 546.4 369.79"></polygon>
    <polygon class="a" points="658.05 286.44 644.68 286.44 644.68 369.79 704.52 369.79 704.52 367.24 658.05 367.24 658.05 286.44"></polygon>
</svg>
