<svg xmlns="http://www.w3.org/2000/svg" viewBox="0 0 636.9 17.32"><path class="a" d="M253.65,15.17h7.41v2h-9.72V0h2.31Z"></path><path class="a" d="M277.44,15.28a4.77,4.77,0,0,0,1.9-.36,4,4,0,0,0,1.42-1,4.4,4.4,0,0,0,.88-1.54,6.21,6.21,0,0,0,.31-2V0h2.3V10.41a7.88,7.88,0,0,1-.47,2.74,6.56,6.56,0,0,1-1.35,2.2,6.28,6.28,0,0,1-2.15,1.45,8,8,0,0,1-5.68,0,6.28,6.28,0,0,1-2.15-1.45,6.42,6.42,0,0,1-1.36-2.2,7.88,7.88,0,0,1-.47-2.74V0h2.3V10.39a6.23,6.23,0,0,0,.31,2,4.49,4.49,0,0,0,.88,1.54,4.12,4.12,0,0,0,1.43,1A4.77,4.77,0,0,0,277.44,15.28Z"></path><path class="a" d="M299.37,8.33,293.72,0H296a.61.61,0,0,1,.37.09.81.81,0,0,1,.22.23l4.46,6.86a3.67,3.67,0,0,1,.25-.55L305.55.37a1.25,1.25,0,0,1,.23-.27.48.48,0,0,1,.31-.1h2.21l-5.68,8.22,5.87,8.9H306.2a.56.56,0,0,1-.42-.14,1.13,1.13,0,0,1-.24-.3L301,9.5a3.33,3.33,0,0,1-.21.48l-4.47,6.7a1.81,1.81,0,0,1-.25.3.49.49,0,0,1-.39.14h-2.15Z"></path><path class="a" d="M324.58,15.28a4.77,4.77,0,0,0,1.9-.36,4,4,0,0,0,1.42-1,4.4,4.4,0,0,0,.88-1.54,6.21,6.21,0,0,0,.31-2V0h2.3V10.41a7.88,7.88,0,0,1-.47,2.74,6.56,6.56,0,0,1-1.35,2.2,6.28,6.28,0,0,1-2.15,1.45,8,8,0,0,1-5.68,0,6.28,6.28,0,0,1-2.15-1.45,6.42,6.42,0,0,1-1.36-2.2,7.88,7.88,0,0,1-.47-2.74V0h2.3V10.39a6.23,6.23,0,0,0,.31,2,4.49,4.49,0,0,0,.88,1.54,4.12,4.12,0,0,0,1.43,1A4.77,4.77,0,0,0,324.58,15.28Z"></path><path class="a" d="M345.08,10v7.14h-2.3V0h4.84a10.49,10.49,0,0,1,2.8.33,5.51,5.51,0,0,1,2,1,3.8,3.8,0,0,1,1.14,1.5,5.12,5.12,0,0,1,.37,2,5,5,0,0,1-.29,1.69,4.5,4.5,0,0,1-.83,1.42,5.25,5.25,0,0,1-1.33,1.07,6.63,6.63,0,0,1-1.77.66,2.39,2.39,0,0,1,.76.73l5,6.8h-2.06a1,1,0,0,1-.93-.49L348,10.51a1.51,1.51,0,0,0-.44-.41,1.67,1.67,0,0,0-.72-.12Zm0-1.69h2.43a6,6,0,0,0,1.78-.24,3.62,3.62,0,0,0,1.29-.7,2.8,2.8,0,0,0,.79-1.07,3.56,3.56,0,0,0,.26-1.37,2.72,2.72,0,0,0-1-2.3,4.84,4.84,0,0,0-3-.78h-2.54Z"></path><path class="a" d="M371.69,10.31v6.81h-2.31V10.31L363.11,0h2a.69.69,0,0,1,.49.16,1.47,1.47,0,0,1,.31.38l3.92,6.65c.16.28.29.55.4.79s.2.49.29.73c.09-.25.18-.49.29-.74a5.67,5.67,0,0,1,.39-.78L375.14.54a1.62,1.62,0,0,1,.29-.37.73.73,0,0,1,.49-.17H378Z"></path><polygon class="a" points="568.75 9.96 399 9.96 399 9.23 636.9 9.23 568.75 9.96"></polygon><polygon class="a" points="225.23 9.96 55.26 9.96 0 9.23 225.23 9.23 225.23 9.96"></polygon></svg>
