<svg xmlns="http://www.w3.org/2000/svg" viewBox="0 0 848.6 87.06"><path class="a" d="M29.79,1.86H0V85.2H13.37V45.5H29.79c19.15,0,30.58-8.07,30.58-21.59S48.65,1.86,29.79,1.86ZM13.37,4.41H27.78c12.84,0,18.69,10.11,18.69,19.5,0,13.16-9.45,19-18.82,19H13.37Z"></path><path class="a" d="M140.62,51.24l6.81,34H161.1l-5.8-28.47c-1.36-7.29-6.76-12.53-14.53-14.44,11.86-2.77,18.55-9.81,18.55-19.77,0-12.36-13-20.66-32.46-20.66h-28V85.2h13.37V43.64H129.8C135.1,43.64,139.85,47,140.62,51.24ZM112.18,4.41h14.28c13,0,19,9.38,19,18.11,0,7.47-5.09,18.58-19.09,18.58H112.18Z"></path><polygon class="a" points="261.87 82.66 215.4 82.66 215.4 44.23 242.78 44.23 242.78 41.68 215.4 41.68 215.4 4.41 261.87 4.41 261.87 1.86 202.03 1.86 202.03 85.2 261.87 85.2 261.87 82.66"></polygon><path class="a" d="M356.41,61.18c0-18.82-15.37-22.15-30.23-25.37l-1.25-.27c-14.47-3.18-25.54-6.42-25.54-16.62,0-9.18,10.67-16.37,24.3-16.37,9,0,17.74,3.58,22.75,9.36l.53.61,2-1.77-.55-.61C342.73,3.79,333.42,0,323.55,0,306.68,0,293,10.78,293,24c0,17.62,14.51,20.87,28.62,24s27.2,5.91,27.2,18.58c0,10-11.2,17.89-25.5,17.89-9.86,0-19.67-4.13-25-10.51l-.52-.64-2,1.77.53.61c6.15,7.08,16.36,11.31,27.32,11.31C341.67,87.06,356.41,75.45,356.41,61.18Z"></path><rect class="a" x="397.52" y="1.86" width="13.37" height="83.35"></rect><path class="a" d="M483.12,1.86H456.67V85.2h26.45c27.21,0,46.21-17.13,46.21-41.67S510.33,1.86,483.12,1.86ZM470,4.41h12.28c19.48,0,32.57,15.72,32.57,39.12S501.8,82.66,482.32,82.66H470Z"></path><polygon class="a" points="568.43 85.2 628.27 85.2 628.27 82.66 581.8 82.66 581.8 44.23 609.18 44.23 609.18 41.68 581.8 41.68 581.8 4.41 628.27 4.41 628.27 1.86 568.43 1.86 568.43 85.2"></polygon><polygon class="a" points="734.01 66.26 680.42 2.15 680.18 1.86 666.71 1.86 666.71 85.2 669.66 85.2 669.66 9.29 734.07 85.61 734.31 85.9 736.97 85.9 736.97 1.86 734.01 1.86 734.01 66.26"></polygon><polygon class="a" points="773 1.86 773 4.41 804.11 4.41 804.11 85.2 817.48 85.2 817.48 4.41 848.6 4.41 848.6 1.86 773 1.86"></polygon></svg>
