<svg xmlns="http://www.w3.org/2000/svg" viewBox="0 0 566.99 87.99"><polygon class="a" points="0 4.41 31.11 4.41 31.11 85.2 44.48 85.2 44.48 4.41 75.6 4.41 75.6 1.86 0 1.86 0 4.41"></polygon><path class="a" d="M153.59,42.29c11.86-2.77,18.55-9.81,18.55-19.77,0-12.36-13-20.66-32.46-20.66H111.63V85.2H125V43.64h17.62c5.3,0,10,3.33,10.82,7.6l6.81,34h13.67l-5.8-28.47C166.76,49.44,161.36,44.2,153.59,42.29ZM125,4.41h14.28c13,0,19,9.38,19,18.11,0,7.47-5.09,18.58-19.09,18.58H125Z"></path><path class="a" d="M244.9,0h-2.26L205.07,85.2h3.11l11.88-26.93h36.33L268.14,85.2h14.33L245.11.48ZM221.18,55.72,237.84,18l17.28,37.73Z"></path><polygon class="a" points="342.12 69.88 313.88 2.35 313.67 1.86 299.5 1.86 335.36 87.5 335.57 87.99 337.71 87.99 373.78 1.86 370.69 1.86 342.12 69.88"></polygon><polygon class="a" points="408.87 85.2 468.71 85.2 468.71 82.66 422.24 82.66 422.24 44.23 449.61 44.23 449.61 41.68 422.24 41.68 422.24 4.41 468.71 4.41 468.71 1.86 408.87 1.86 408.87 85.2"></polygon><polygon class="a" points="520.52 1.86 507.15 1.86 507.15 85.2 566.99 85.2 566.99 82.66 520.52 82.66 520.52 1.86"></polygon></svg>
