<svg xmlns="http://www.w3.org/2000/svg" viewBox="0 0 433.58 17.5"><path class="a" d="M13.4.19v2H7.87V17.31H5.55V2.14H0V.19Z"></path><path class="a" d="M25.55,10.17v7.14h-2.3V.19h4.84a10.49,10.49,0,0,1,2.8.33,5.51,5.51,0,0,1,2,1A3.88,3.88,0,0,1,34,3a5.12,5.12,0,0,1,.37,2,4.92,4.92,0,0,1-.29,1.69,4.5,4.5,0,0,1-.83,1.42,5.08,5.08,0,0,1-1.33,1.07,6.63,6.63,0,0,1-1.77.66,2.52,2.52,0,0,1,.77.73l5,6.8H33.84a1,1,0,0,1-.93-.49l-4.44-6.11a1.33,1.33,0,0,0-.44-.42,1.67,1.67,0,0,0-.72-.12Zm0-1.69H28a5.94,5.94,0,0,0,1.78-.24,3.75,3.75,0,0,0,1.3-.7,2.92,2.92,0,0,0,.78-1.06A3.65,3.65,0,0,0,32.1,5.1a2.72,2.72,0,0,0-1-2.3,4.84,4.84,0,0,0-3-.78H25.55Z"></path><path class="a" d="M59.65,17.31H57.86a.81.81,0,0,1-.51-.15,1,1,0,0,1-.28-.4l-1.6-4.13H47.79l-1.6,4.13a1,1,0,0,1-.29.38.78.78,0,0,1-.5.17H43.6L50.45.19H52.8ZM48.43,11h6.39L52.13,4a14.89,14.89,0,0,1-.51-1.61c-.09.32-.17.63-.26.9s-.16.52-.24.72Z"></path><path class="a" d="M65.37.19h1.85a.82.82,0,0,1,.51.16A.93.93,0,0,1,68,.74l4.84,12.08a8.22,8.22,0,0,1,.3.88c.1.32.19.65.27,1,.08-.35.15-.68.24-1a6.48,6.48,0,0,1,.29-.88L78.76.74a1.1,1.1,0,0,1,.29-.38.78.78,0,0,1,.5-.17h1.87l-7,17.12H72.35Z"></path><path class="a" d="M101.32.19V2.08H93.1V7.77h6.65V9.58H93.1v5.84h8.22v1.89H90.77V.19Z"></path><path class="a" d="M114.14,15.37h7.4v1.94h-9.72V.19h2.32Z"></path><path class="a" d="M133.59,15.37H141v1.94h-9.72V.19h2.32Z"></path><path class="a" d="M153.46,17.31h-2.31V.19h2.31Z"></path><path class="a" d="M166.87.27a1.21,1.21,0,0,1,.35.32l9.91,12.9c0-.21,0-.41,0-.6s0-.39,0-.57V.19h2V17.31h-1.17a.92.92,0,0,1-.46-.1,1.15,1.15,0,0,1-.36-.32L167.2,4c0,.2,0,.4,0,.59s0,.37,0,.52v12.2h-2V.19h1.19A1.05,1.05,0,0,1,166.87.27Z"></path><path class="a" d="M198.09,15.63a12.3,12.3,0,0,0,1.27-.07,8.82,8.82,0,0,0,1.09-.19,9.18,9.18,0,0,0,1-.32c.3-.13.6-.27.91-.43V10.85h-2.66a.53.53,0,0,1-.36-.13.45.45,0,0,1-.14-.33V9.08h5.26v6.57a9.28,9.28,0,0,1-1.35.81,8.54,8.54,0,0,1-1.49.58,10.87,10.87,0,0,1-1.7.35,15.18,15.18,0,0,1-2,.11,8.83,8.83,0,0,1-3.42-.64,7.84,7.84,0,0,1-2.68-1.79,8.34,8.34,0,0,1-1.75-2.76,9.91,9.91,0,0,1-.62-3.55,9.91,9.91,0,0,1,.61-3.57,7.86,7.86,0,0,1,1.76-2.77A7.77,7.77,0,0,1,194.58.64,9.72,9.72,0,0,1,198.2,0a11.14,11.14,0,0,1,1.89.15,8.73,8.73,0,0,1,1.62.43,7.38,7.38,0,0,1,1.38.68,8.75,8.75,0,0,1,1.18.9l-.65,1a.61.61,0,0,1-.53.33.92.92,0,0,1-.42-.13L202,3a5.34,5.34,0,0,0-.9-.46,7.46,7.46,0,0,0-1.25-.38A8.67,8.67,0,0,0,198.13,2a7,7,0,0,0-2.61.47,5.49,5.49,0,0,0-2,1.35A5.79,5.79,0,0,0,192.26,6a8.18,8.18,0,0,0-.45,2.8,8.59,8.59,0,0,0,.46,2.89,6.14,6.14,0,0,0,1.3,2.16,5.63,5.63,0,0,0,2,1.35A6.72,6.72,0,0,0,198.09,15.63Z"></path><path class="a" d="M225,.19H227a.86.86,0,0,1,.51.16.73.73,0,0,1,.28.39l3.53,11.9a7,7,0,0,1,.17.69q.09.38.15.78c.06-.27.12-.53.17-.78s.12-.48.19-.69l4-11.9a1,1,0,0,1,.28-.38.8.8,0,0,1,.51-.17h.67a.83.83,0,0,1,.79.55l4,11.9a12,12,0,0,1,.38,1.42c0-.26.09-.51.13-.75a4.38,4.38,0,0,1,.16-.67L246.44.74a.75.75,0,0,1,.27-.38.8.8,0,0,1,.51-.17H249l-5.34,17.12h-2.07l-4.34-13a6.68,6.68,0,0,1-.24-.87c0,.16-.08.32-.11.46s-.08.29-.12.41l-4.36,13.05h-2.08Z"></path><path class="a" d="M274.35,8.76a9.8,9.8,0,0,1-.61,3.53A8,8,0,0,1,272,15.05a7.5,7.5,0,0,1-2.67,1.8,9.59,9.59,0,0,1-6.89,0,7.55,7.55,0,0,1-2.66-1.8,8.11,8.11,0,0,1-1.72-2.76,9.8,9.8,0,0,1-.61-3.53,9.8,9.8,0,0,1,.61-3.53,8.16,8.16,0,0,1,1.72-2.77A7.71,7.71,0,0,1,262.46.65a9.45,9.45,0,0,1,6.89,0A7.66,7.66,0,0,1,272,2.46a8,8,0,0,1,1.72,2.77A9.8,9.8,0,0,1,274.35,8.76Zm-2.38,0a8.58,8.58,0,0,0-.43-2.83,6,6,0,0,0-1.21-2.13,5.43,5.43,0,0,0-1.92-1.33,7,7,0,0,0-5,0,5.43,5.43,0,0,0-1.92,1.33,5.86,5.86,0,0,0-1.22,2.13,8.58,8.58,0,0,0-.43,2.83,8.52,8.52,0,0,0,.43,2.82,5.82,5.82,0,0,0,1.22,2.12A5.16,5.16,0,0,0,263.41,15a7,7,0,0,0,5,0,5.16,5.16,0,0,0,1.92-1.32,6,6,0,0,0,1.21-2.12A8.52,8.52,0,0,0,272,8.76Z"></path><path class="a" d="M287.23,10.17v7.14h-2.31V.19h4.84a10.57,10.57,0,0,1,2.81.33,5.38,5.38,0,0,1,1.95,1A3.69,3.69,0,0,1,295.66,3a4.94,4.94,0,0,1,.37,2,4.91,4.91,0,0,1-.28,1.69,4.5,4.5,0,0,1-.83,1.42,5.44,5.44,0,0,1-1.33,1.07,6.63,6.63,0,0,1-1.77.66,2.5,2.5,0,0,1,.76.73l5,6.8h-2.06a1,1,0,0,1-.93-.49l-4.44-6.11a1.35,1.35,0,0,0-.45-.42,1.65,1.65,0,0,0-.71-.12Zm0-1.69h2.42a6,6,0,0,0,1.79-.24,3.71,3.71,0,0,0,1.29-.7,2.71,2.71,0,0,0,.78-1.06,3.47,3.47,0,0,0,.27-1.38,2.72,2.72,0,0,0-1-2.3,4.89,4.89,0,0,0-3-.78h-2.53Z"></path><path class="a" d="M309.56,15.37H317v1.94h-9.73V.19h2.32Z"></path><path class="a" d="M341.53,8.76a9.78,9.78,0,0,1-.61,3.5A7.85,7.85,0,0,1,339.2,15a7.63,7.63,0,0,1-2.67,1.74,9.24,9.24,0,0,1-3.44.61h-6.4V.19h6.4a9.24,9.24,0,0,1,3.44.62,7.63,7.63,0,0,1,2.67,1.74,7.9,7.9,0,0,1,1.72,2.71A9.78,9.78,0,0,1,341.53,8.76Zm-2.38,0a8.52,8.52,0,0,0-.43-2.82,5.87,5.87,0,0,0-1.22-2.1,5,5,0,0,0-1.91-1.32,6.66,6.66,0,0,0-2.5-.45H329V15.44h4.07a6.47,6.47,0,0,0,2.5-.46,5.23,5.23,0,0,0,1.91-1.3,6,6,0,0,0,1.22-2.1A8.52,8.52,0,0,0,339.15,8.76Z"></path><path class="a" d="M349.94.19h1.92a.87.87,0,0,1,.52.16.77.77,0,0,1,.27.39l3.54,11.9c.06.22.12.45.17.69s.1.51.15.78c.05-.27.11-.53.16-.78a5.67,5.67,0,0,1,.2-.69l4-11.9a1,1,0,0,1,.28-.38.8.8,0,0,1,.51-.17h.67a.82.82,0,0,1,.51.16.85.85,0,0,1,.28.39l4,11.9a12,12,0,0,1,.38,1.42c.05-.26.09-.51.13-.75a6,6,0,0,1,.16-.67L371.36.74a.75.75,0,0,1,.27-.38.8.8,0,0,1,.5-.17h1.81L368.6,17.31h-2.08l-4.34-13q-.12-.37-.24-.87c0,.16-.07.32-.11.46s-.07.29-.11.41l-4.36,13.05h-2.08Z"></path><path class="a" d="M386.11,17.31h-2.32V.19h2.32Z"></path><path class="a" d="M412.71,8.76a9.78,9.78,0,0,1-.61,3.5,7.85,7.85,0,0,1-1.72,2.7,7.72,7.72,0,0,1-2.67,1.74,9.24,9.24,0,0,1-3.44.61h-6.4V.19h6.4a9.24,9.24,0,0,1,3.44.62,7.72,7.72,0,0,1,2.67,1.74,7.9,7.9,0,0,1,1.72,2.71A9.78,9.78,0,0,1,412.71,8.76Zm-2.38,0a8.79,8.79,0,0,0-.43-2.82,6,6,0,0,0-1.22-2.1,5.12,5.12,0,0,0-1.91-1.32,6.66,6.66,0,0,0-2.5-.45H400.2V15.44h4.07a6.47,6.47,0,0,0,2.5-.46,5.32,5.32,0,0,0,1.91-1.3,6.11,6.11,0,0,0,1.22-2.1A8.79,8.79,0,0,0,410.33,8.76Z"></path><path class="a" d="M433.58.19V2.08h-8.22V7.77H432V9.58h-6.65v5.84h8.22v1.89H423V.19Z"></path></svg>